<?xml version="1.0" encoding="UTF-8" standalone="no"?>
<svg
   xmlns:dc="http://purl.org/dc/elements/1.1/"
   xmlns:cc="http://creativecommons.org/ns#"
   xmlns:rdf="http://www.w3.org/1999/02/22-rdf-syntax-ns#"
   xmlns:svg="http://www.w3.org/2000/svg"
   xmlns="http://www.w3.org/2000/svg"
   xmlns:sodipodi="http://sodipodi.sourceforge.net/DTD/sodipodi-0.dtd"
   xmlns:inkscape="http://www.inkscape.org/namespaces/inkscape"
   width="24"
   height="24"
   version="1.1"
   id="svg4"
   sodipodi:docname="bxs-bowl-hot-blue.svg"
   inkscape:version="0.92.5 (2060ec1f9f, 2020-04-08)">
  <metadata
     id="metadata10">
    <rdf:RDF>
      <cc:Work
         rdf:about="">
        <dc:format>image/svg+xml</dc:format>
        <dc:type
           rdf:resource="http://purl.org/dc/dcmitype/StillImage" />
        <dc:title></dc:title>
      </cc:Work>
    </rdf:RDF>
  </metadata>
  <defs
     id="defs8" />
  <sodipodi:namedview
     pagecolor="#ffffff"
     bordercolor="#666666"
     borderopacity="1"
     objecttolerance="10"
     gridtolerance="10"
     guidetolerance="10"
     inkscape:pageopacity="0"
     inkscape:pageshadow="2"
     inkscape:window-width="775"
     inkscape:window-height="480"
     id="namedview6"
     showgrid="false"
     inkscape:zoom="9.8333333"
     inkscape:cx="12"
     inkscape:cy="12"
     inkscape:window-x="0"
     inkscape:window-y="0"
     inkscape:window-maximized="0"
     inkscape:current-layer="svg4" />
  <path
     d="M21 10H3a1 1 0 0 0-1 1 10 10 0 0 0 5 8.66V21a1 1 0 0 0 1 1h8a1 1 0 0 0 1-1v-1.34A10 10 0 0 0 22 11a1 1 0 0 0-1-1zM9 9V7.93a4.51 4.51 0 0 0-1.28-3.15A2.49 2.49 0 0 1 7 3V2H5v1a4.51 4.51 0 0 0 1.28 3.17A2.49 2.49 0 0 1 7 7.93V9zm4 0V7.93a4.51 4.51 0 0 0-1.28-3.15A2.49 2.49 0 0 1 11 3V2H9v1a4.51 4.51 0 0 0 1.28 3.15A2.49 2.49 0 0 1 11 7.93V9zm4 0V7.93a4.51 4.51 0 0 0-1.28-3.15A2.49 2.49 0 0 1 15 3V2h-2v1a4.51 4.51 0 0 0 1.28 3.15A2.49 2.49 0 0 1 15 7.93V9z"
     id="path2"
     style="fill:#0000ff" />
</svg>
